<?xml version="1.0" encoding="utf-8"?>
<!-- Generator: Adobe Illustrator 28.4.1, SVG Export Plug-In . SVG Version: 6.00 Build 0)  -->
<svg version="1.1" id="Layer_1" xmlns="http://www.w3.org/2000/svg" xmlns:xlink="http://www.w3.org/1999/xlink" x="0px" y="0px"
	 viewBox="0 0 303.3 133.74" style="enable-background:new 0 0 303.3 133.74;" xml:space="preserve">
<style type="text/css">
	.st0{fill:#225A9F;}
	.st1{fill:#BCBEC0;}
	.st2{fill:none;}
	.st3{fill:#D1D3D4;}
	.st4{fill:#5193CE;}
</style>
<g>
	<g>
		<path class="st0" d="M84.41,92.91l-7-13.98c-0.53-1.06-0.52-2.33,0.02-3.5l0.35-0.75c0.59-1.27,0.89-2.62,0.89-4.13
			c0-5.77-2.47-11.49-6.77-15.68c-3.57-3.48-10.19-7.62-21.43-7.65c-0.21-0.02-0.44-0.02-0.66-0.04h-1.58v0.01l-0.32,0
			c-0.01,0-0.02-0.01-0.04-0.01h-1.78v0l-1.01,0c0,0,0,0,0,0h-1.12v0.64l0.82,0.34c3.39,2.69,5.39,21.35,5.39,24.93
			c0,0.45-0.07,2.19-0.14,2.43c-0.02,0.04-0.03,0.09-0.04,0.14l-0.08,0.54c-0.19,0.7-0.19,3.26,0,3.97l1.77,11.78
			c0.04,0.15,0.07,0.95,0.06,1.11c-0.02,0.61-0.36,3.08-0.66,3.64c-0.3,0.1-0.79,0.52-1.25,2.48c-0.01,0.04-0.01,0.08-0.01,0.13
			l0.08,3.8c0.02,0.38,0.07,0.61,0.17,0.76c0.02,0.12,0.04,0.34,0.03,0.44l-0.2,2.38c-0.01,0.06,0,0.12,0.02,0.18l0.06,0.21
			c0.01,0.04,0.03,0.08,0.05,0.12c0.07,0.26,0.15,1.33,0.15,1.59c0,0.1-0.05,0.43-0.09,0.6c-0.15,0.16-0.21,0.42-0.27,0.67
			c-0.02,0.07-0.03,0.14,0,0.09c-0.04,0.05-0.06,0.11-0.07,0.18l-0.1,0.52c-0.17,0.54-0.17,1.82-0.17,1.83l0,0.63
			c0,0.05,0.01,0.09,0.02,0.13l0.01,0.41c0.02,1.44-0.22,9.67-1.89,11.37c-0.22,0.22-0.38,0.22-0.44,0.22
			c-0.13,0-0.24,0.06-0.34,0.15H43.8V63.55c0-0.01,0-0.02,0-0.03V0h-2.83h-1.12c0,0,0,0,0,0l-1.01,0v0h-1.78
			c-0.01,0-0.02,0.01-0.04,0.01l-0.32,0V0h-1.58c-0.22,0.02-0.45,0.02-0.66,0.04C23.22,0.07,16.6,4.21,13.03,7.69
			c-4.3,4.19-6.77,9.91-6.77,15.68c0,1.52,0.3,2.86,0.89,4.13l0.35,0.75c0.54,1.17,0.55,2.44,0.02,3.5l-7,13.98
			C0.15,46.45-0.03,47.27,0,48.09c0.1,2.83,2.35,5.16,5.12,5.35C6,53.51,6.89,53.58,7.6,53.63l-0.19,3.12
			c-0.69,0.55-1,1.46-0.76,2.35l0.6,2.23c-0.62,0.8-0.96,1.8-0.96,2.86c0,1.25,0.91,2.28,2.09,2.43l0.36,0.55
			c0.25,0.39,0.39,0.82,0.38,1.26l-0.01,0.41c-0.03,0.1-0.06,0.21-0.07,0.31l-0.06,0.73c-0.05,2.39,0.19,5.72,2.7,8.26
			c0.01,0.01,0.02,0.02,0.02,0.02c1.25,1.26,3.01,1.87,4.79,1.87h12.35h3.53L32.28,80l0.69,0.02v0.02h0.64l1.48,0.07
			c0,0-0.03-0.03-0.06-0.07h2.78h0.55h2.53c0.02,1.53,0.06,3.05,0.08,4.58v42.6h1.32h1.51h2.77h0.55h2.78
			c-0.04,0.04-0.06,0.07-0.06,0.07l1.48-0.07h0.64v-0.02l0.69-0.02l-0.11,0.04h3.53h12.35c1.77,0,3.54-0.61,4.79-1.87
			c0.01-0.01,0.02-0.02,0.02-0.02c2.5-2.55,2.74-5.88,2.7-8.26l-0.06-0.73c-0.01-0.11-0.03-0.21-0.07-0.31l-0.01-0.41
			c-0.01-0.44,0.12-0.87,0.38-1.26l0.36-0.55c1.18-0.15,2.09-1.18,2.09-2.43c0-1.05-0.34-2.05-0.96-2.86l0.6-2.23
			c0.24-0.89-0.07-1.8-0.76-2.35l-0.19-3.12c0.71-0.05,1.6-0.12,2.48-0.18c2.77-0.2,5.02-2.52,5.12-5.35
			C84.95,94.45,84.77,93.64,84.41,92.91z M13.77,76.09c-1.71-1.74-1.9-4.15-1.86-6.06l0.02-0.24c0.07-0.15,0.1-0.32,0.11-0.49
			l0.01-0.83c0.02-1.02-0.28-2.03-0.85-2.91l-0.43-0.65c-0.36-0.54-0.9-0.93-1.51-1.11c0.07-0.33,0.21-0.6,0.42-0.82l0.25-0.26
			c0.35-0.37,0.48-0.89,0.35-1.39L9.6,58.78c0.42-0.38,0.68-0.92,0.71-1.51l0.3-4.9c0.05-0.8-0.55-1.49-1.35-1.55
			c0,0-1.99-0.15-3.93-0.29c-1.28-0.09-2.35-1.21-2.4-2.49c-0.01-0.39,0.05-0.71,0.2-1l7-13.98c0.93-1.86,0.94-4.06,0.02-6.04
			L9.8,26.26c-0.41-0.88-0.62-1.81-0.62-2.77c0-7.81,4.92-15.98,15.45-19.15c-6.34,5.37-9.21,14.37-9.21,19.85
			c0,0.98,0.18,2.67,0.67,3.72l0.23,0.62c0.43,0.93,0.44,2.74,0.05,3.52l-5.29,13.32c-0.26,0.5-0.37,1.4-0.35,1.99
			c0.07,2,1.62,4.94,3.88,5.1c0.66,0.05,1.36,0.28,1.85,0.48l-0.18,3.6c-0.55,0.49-0.72,1.34-0.56,1.96l0.48,2.2
			c-0.57,0.74-0.75,2.02-0.75,2.62c0,0.88,0.58,1.85,1.44,2.07c0.02,0.03,0.05,0.07,0.09,0.13l0.26,0.51
			c0.18,0.29,0.34,0.96,0.33,1.41l-0.01,0.45c-0.03,0.08-0.04,0.16-0.05,0.25l-0.05,0.67c-0.04,2.35,0.3,6.62,3.03,9.39
			c0.11,0.11,0.23,0.18,0.35,0.28C17.59,78.36,15.21,77.56,13.77,76.09z M29.14,78.93l-1.74-0.46c-0.1-0.02-0.19-0.04-0.29-0.04
			c-2.11,0-3.78-0.62-4.98-1.83c-2.22-2.26-2.4-6.13-2.37-7.69l0.02-0.3c0.05-0.12,0.07-0.24,0.07-0.36l0.01-0.76
			c0.01-0.63-0.15-1.85-0.65-2.6l-0.26-0.51c-0.19-0.29-0.57-0.88-1.2-1.11c0.01-0.51,0.2-1.09,0.32-1.23l0.26-0.33
			c0.2-0.27,0.28-0.61,0.21-0.93l-0.57-2.63c0.39-0.36,0.55-0.89,0.58-1.3l0.23-4.54c0.02-0.44-0.21-0.86-0.6-1.06
			c-0.07-0.04-1.73-0.92-3.4-1.04c-0.71-0.05-1.71-1.68-1.76-2.86c-0.01-0.39,0.08-0.88,0.14-1.01l5.29-13.32
			c0.66-1.31,0.67-3.85-0.03-5.34l-0.23-0.62c-0.31-0.67-0.49-1.93-0.49-2.73c0-5.64,4.02-17.83,13.67-21.21
			c0.19,0.26,0.17,0.23,0.37,0.49c-5.17,6.22-7.15,18.19-7.15,21.45c0,0.37,0.08,2.52,0.45,3.31l0.13,0.51
			c0.32,0.72,0.29,3.05,0.06,3.51c-0.02,0.05-0.04,0.1-0.06,0.15l-3.49,12.42c-0.23,0.58-0.22,1.69-0.22,1.7
			c0.02,0.58,0.69,4.7,2.64,4.85c0.29,0.02,0.82,0.48,1.19,0.95l-0.14,3.87c0,0.01-0.01,0.03-0.01,0.05
			c-0.42,0.45-0.44,1.25-0.35,1.56l0.34,2.21c-0.49,0.76-0.52,2.33-0.52,2.35c0,0.26,0.15,1.35,0.83,1.69
			c0.02,0.04,0.03,0.07,0.05,0.11c0.03,0.06,0.06,0.12,0.09,0.17l0.19,0.51c0.02,0.06,0.05,0.11,0.08,0.16
			c0.07,0.17,0.18,1.01,0.17,1.37l-0.01,0.48c-0.02,0.06-0.03,0.12-0.03,0.18l-0.03,0.6c-0.01,0.34-0.1,7.62,3.01,10.78
			c0.22,0.22,0.44,0.41,0.68,0.58L29.14,78.93z M32.97,78.43L32.97,78.43c-0.24-0.06-0.45-0.07-0.53-0.07
			c-0.89,0-1.65-0.32-2.3-0.99c-2.1-2.14-2.58-7.19-2.54-9.57l0.02-0.37c0.03-0.08,0.04-0.16,0.04-0.24l0.01-0.69
			c0-0.01-0.02-1.49-0.38-2.19l-0.19-0.51c-0.02-0.06-0.05-0.11-0.08-0.16c-0.16-0.32-0.35-0.71-0.7-0.9
			c-0.03-0.09-0.06-0.2-0.06-0.26c0-0.4,0.14-1.26,0.26-1.46l0.2-0.34c0.08-0.16,0.12-0.34,0.09-0.52l-0.4-2.59
			c0.02-0.06,0.04-0.14,0.06-0.21c0.28-0.36,0.33-0.86,0.34-0.99l0.15-4.17c0.01-0.18-0.04-0.35-0.14-0.5
			c-0.2-0.3-1.29-1.78-2.58-1.87c-0.37-0.23-1.08-2.3-1.12-3.24c-0.01-0.27,0.05-0.9,0.1-1.06l3.53-12.53
			c0.44-1.03,0.43-3.73-0.03-4.73l-0.13-0.51c-0.19-0.43-0.35-1.92-0.35-2.67c0-3.95,2.53-16.8,8.02-21.73l-0.02-0.01
			c0.05-0.04,0.09-0.07,0.14-0.11c0.46-0.4,0.93-0.76,1.43-1.04c0.02,0,0.05,0,0.07,0c1.16-0.66,1.83-0.69,1.83-0.69l0,0.01
			c0.28-0.05,0.56-0.09,0.85-0.11c-3.7,5.88-4.8,24.21-4.8,24.43c0,0.07,0.03,2.17,0.2,2.8l0.08,0.55c0.01,0.05,0.02,0.09,0.04,0.14
			c0.12,0.37,0.12,2.96-0.01,3.35c-0.02,0.05-0.03,0.07-0.04,0.12l-1.75,11.7c-0.1,0.42-0.1,1.37-0.1,1.38
			c0,0.06,0.22,4.2,1.29,4.57c0.17,0.19,0.45,0.95,0.63,1.7l-0.07,3.72c0,0.06-0.02,0.21-0.04,0.29c-0.24,0.4-0.14,1.12-0.14,1.13
			l0.18,2.2l-0.03,0.12c-0.24,0.59-0.24,1.96-0.24,1.98c0,0.27,0.02,0.98,0.34,1.31c0.02,0.06,0.03,0.14,0.05,0.21
			c0.03,0.12,0.05,0.22,0.08,0.29l0.1,0.48c0.01,0.06,0.04,0.12,0.07,0.18c0.02,0.12,0.08,1.21,0.07,1.42l0,0.51
			c-0.01,0.04-0.02,0.07-0.02,0.11l-0.02,0.54c0,0.1-0.02,9.06,1.93,11.77H32.97z M38.11,78.43c-0.09-0.09-0.2-0.15-0.34-0.15
			c-0.05,0-0.22,0-0.44-0.22c-1.67-1.7-1.92-9.93-1.89-11.37l0.01-0.41c0.01-0.04,0.02-0.09,0.02-0.13l0-0.63
			c0-0.01,0-1.29-0.17-1.83l-0.1-0.52c-0.01-0.06-0.04-0.12-0.07-0.18c0.03,0.05,0.01-0.03,0-0.09c-0.06-0.26-0.12-0.52-0.27-0.67
			c-0.04-0.17-0.09-0.5-0.09-0.6c0-0.26,0.07-1.33,0.15-1.59c0.02-0.04,0.04-0.08,0.05-0.12l0.06-0.21
			c0.02-0.06,0.02-0.12,0.02-0.18l-0.2-2.38c-0.01-0.1,0.01-0.33,0.03-0.44c0.1-0.15,0.15-0.38,0.17-0.76l0.08-3.8
			c0-0.04,0-0.09-0.01-0.13c-0.47-1.96-0.96-2.38-1.25-2.48c-0.29-0.56-0.63-3.03-0.66-3.64c-0.01-0.16,0.03-0.95,0.06-1.11
			L35.03,33c0.19-0.72,0.19-3.28,0-3.97l-0.08-0.54c-0.01-0.05-0.02-0.09-0.04-0.14c-0.07-0.24-0.14-1.98-0.14-2.43
			c0-3.58,1.99-22.24,5.39-24.93l0.82-0.34v42c-0.19,11.93-0.23,23.86-0.1,35.79H38.11z M52.48,125.54c-0.08,0-0.28,0.02-0.53,0.07
			v0h-3.4c1.95-2.71,1.93-11.67,1.93-11.77l-0.02-0.54c0-0.04-0.01-0.08-0.02-0.11l0-0.51c0-0.21,0.05-1.3,0.07-1.42
			c0.04-0.05,0.06-0.12,0.07-0.18l0.1-0.48c0.03-0.08,0.05-0.17,0.08-0.29c0.02-0.07,0.03-0.15,0.05-0.21
			c0.31-0.33,0.34-1.04,0.34-1.31c0-0.02,0-1.39-0.24-1.98l-0.03-0.12l0.18-2.2c0-0.01,0.1-0.73-0.14-1.13
			c-0.02-0.08-0.03-0.23-0.04-0.29l-0.07-3.72c0.18-0.75,0.47-1.51,0.63-1.7c1.07-0.36,1.29-4.51,1.29-4.57
			c0-0.01,0.01-0.95-0.1-1.38L50.89,80c-0.01-0.05-0.01-0.08-0.04-0.12c-0.13-0.39-0.12-2.98-0.01-3.35
			c0.02-0.04,0.03-0.09,0.04-0.14l0.08-0.55c0.17-0.63,0.2-2.73,0.2-2.8c0-0.22-1.1-18.55-4.8-24.43c0.29,0.01,0.57,0.05,0.85,0.11
			l0-0.01c0,0,0.66,0.03,1.83,0.69c0.02,0,0.05,0,0.07,0c0.5,0.28,0.97,0.64,1.43,1.04c0.05,0.04,0.09,0.07,0.14,0.11l-0.02,0.01
			c5.49,4.92,8.02,17.78,8.02,21.73c0,0.75-0.16,2.25-0.35,2.67l-0.13,0.51c-0.46,0.99-0.47,3.7-0.03,4.73l3.53,12.53
			c0.06,0.16,0.11,0.79,0.1,1.06c-0.03,0.94-0.74,3.01-1.12,3.24c-1.3,0.09-2.38,1.57-2.58,1.87c-0.1,0.15-0.15,0.32-0.14,0.5
			l0.15,4.17c0.01,0.12,0.05,0.63,0.34,0.99c0.02,0.06,0.04,0.14,0.06,0.21l-0.4,2.59c-0.03,0.18,0,0.36,0.09,0.52l0.2,0.34
			c0.12,0.2,0.25,1.07,0.26,1.46c-0.01,0.06-0.03,0.17-0.06,0.26c-0.34,0.19-0.54,0.58-0.7,0.9c-0.03,0.05-0.06,0.1-0.08,0.16
			l-0.19,0.51c-0.36,0.7-0.38,2.18-0.38,2.19l0.01,0.69c0,0.08,0.02,0.16,0.04,0.24l0.02,0.37c0.04,2.37-0.44,7.43-2.54,9.57
			C54.13,125.22,53.38,125.54,52.48,125.54z M57.81,125.62c-0.1,0-0.2,0.01-0.29,0.04l-1.74,0.46l-0.5,0.17
			c0.24-0.17,0.46-0.36,0.68-0.58c3.11-3.16,3.02-10.44,3.01-10.78l-0.03-0.6c0-0.06-0.01-0.12-0.03-0.18l-0.01-0.48
			c-0.01-0.36,0.1-1.2,0.17-1.37c0.03-0.05,0.06-0.11,0.08-0.16l0.19-0.51c0.03-0.05,0.06-0.11,0.09-0.17
			c0.02-0.03,0.03-0.07,0.05-0.11c0.68-0.34,0.83-1.43,0.83-1.69c0-0.02-0.03-1.59-0.52-2.35l0.34-2.21
			c0.08-0.31,0.07-1.11-0.35-1.56c-0.01-0.02-0.01-0.04-0.01-0.05l-0.14-3.87c0.37-0.47,0.9-0.93,1.19-0.95
			c1.95-0.14,2.62-4.27,2.64-4.85c0-0.01,0.01-1.12-0.22-1.7l-3.49-12.42c-0.01-0.05-0.03-0.1-0.06-0.15
			c-0.23-0.46-0.26-2.79,0.06-3.51l0.13-0.51c0.37-0.79,0.45-2.94,0.45-3.31c0-3.26-1.98-15.23-7.15-21.45
			c0.19-0.26,0.17-0.23,0.37-0.49c9.65,3.38,13.67,15.58,13.67,21.21c0,0.81-0.18,2.07-0.49,2.73l-0.23,0.62
			c-0.7,1.49-0.69,4.03-0.03,5.34l5.29,13.32c0.07,0.13,0.16,0.62,0.14,1.01c-0.04,1.18-1.05,2.81-1.76,2.86
			c-1.68,0.12-3.33,1-3.4,1.04c-0.39,0.21-0.62,0.62-0.6,1.06l0.23,4.54c0.02,0.4,0.19,0.93,0.58,1.3l-0.57,2.63
			c-0.07,0.33,0.01,0.67,0.21,0.93l0.26,0.33c0.12,0.14,0.31,0.72,0.32,1.23c-0.62,0.23-1.01,0.82-1.2,1.11l-0.26,0.51
			c-0.5,0.76-0.66,1.97-0.65,2.6l0.01,0.76c0,0.13,0.03,0.25,0.07,0.36l0.02,0.3c0.03,1.56-0.15,5.42-2.37,7.69
			C61.6,125,59.92,125.62,57.81,125.62z M79.59,97.71C77.65,97.85,75.66,98,75.66,98c-0.8,0.06-1.4,0.75-1.35,1.55l0.3,4.9
			c0.04,0.59,0.29,1.12,0.71,1.51l-0.69,2.55c-0.13,0.49,0,1.02,0.35,1.39l0.25,0.26c0.21,0.22,0.35,0.5,0.42,0.82
			c-0.61,0.17-1.15,0.57-1.51,1.11l-0.43,0.65c-0.58,0.88-0.87,1.89-0.85,2.91l0.01,0.83c0,0.17,0.04,0.33,0.11,0.49l0.02,0.24
			c0.03,1.91-0.15,4.32-1.86,6.06c-1.44,1.46-3.81,2.26-7.07,2.4c0.11-0.1,0.24-0.18,0.35-0.28c2.73-2.77,3.07-7.04,3.03-9.39
			l-0.05-0.67c-0.01-0.09-0.02-0.17-0.05-0.25l-0.01-0.45c-0.01-0.45,0.15-1.12,0.33-1.41l0.26-0.51c0.04-0.06,0.07-0.1,0.09-0.13
			c0.86-0.23,1.44-1.2,1.44-2.07c0-0.6-0.18-1.87-0.75-2.62l0.48-2.2c0.17-0.62-0.01-1.47-0.56-1.96l-0.18-3.6
			c0.49-0.2,1.19-0.43,1.85-0.48c2.26-0.16,3.81-3.1,3.88-5.1c0.02-0.59-0.09-1.49-0.35-1.99l-5.29-13.32
			c-0.39-0.78-0.38-2.58,0.05-3.52l0.23-0.62c0.49-1.06,0.67-2.75,0.67-3.72c0-5.48-2.87-14.48-9.21-19.85
			c10.53,3.17,15.45,11.34,15.45,19.15c0,0.96-0.21,1.89-0.62,2.77l-0.35,0.75c-0.92,1.98-0.91,4.18,0.02,6.04l7,13.98
			c0.15,0.29,0.21,0.61,0.2,1C81.95,96.51,80.87,97.62,79.59,97.71z"/>
		<path class="st0" d="M32.13,122.82c-1.72-1.97-2.73-4.53-2.73-7.25l0-1.44c0-5.84-3.53-11.28-9.06-13.17
			c-1.82-0.62-3.8-0.88-5.86-0.66c-6.2,0.64-11.26,5.65-11.96,11.84c-0.92,8.15,5.43,15.05,13.39,15.05h15.13h8.27v-1.86h-1.54
			C35.63,125.32,33.54,124.44,32.13,122.82z M31.05,125.32h-0.41H15.92c-3.3,0-6.46-1.41-8.66-3.87c-2.23-2.49-3.26-5.72-2.89-9.08
			c0.59-5.33,4.89-9.63,10.22-10.22c0.44-0.05,0.89-0.07,1.33-0.07c6.41,0,11.62,5.21,11.62,11.62v1.86c0,3.8,1.66,7.34,4.43,9.76
			H31.05z"/>
		<path class="st0" d="M52.36,4.37c1.72,1.97,2.73,4.53,2.73,7.25v1.44c0,5.84,3.53,11.28,9.06,13.17c1.82,0.62,3.8,0.88,5.86,0.66
			c6.2-0.64,11.26-5.65,11.96-11.84C82.88,6.9,76.53,0,68.57,0H53.44h-8.27v1.86h1.54C48.86,1.86,50.94,2.75,52.36,4.37z
			 M53.44,1.86h0.41h14.71c3.3,0,6.46,1.41,8.66,3.87c2.23,2.49,3.26,5.72,2.89,9.08c-0.59,5.33-4.89,9.63-10.22,10.22
			c-0.44,0.05-0.89,0.07-1.33,0.07c-6.41,0-11.62-5.21-11.62-11.62v-1.86c0-3.8-1.66-7.34-4.43-9.76H53.44z"/>
	</g>
	<g>
		<path class="st0" d="M116.52,88.66c-2.13-0.46-3.87-1.26-5.21-2.38c-1.35-1.12-2.02-2.41-2.02-3.86v-6.87h1.09
			c0.68,4.3,2.01,7.27,3.98,8.92c1.97,1.65,4.68,2.47,8.13,2.47c2.17,0,4.03-0.47,5.57-1.42c1.54-0.95,2.32-2.38,2.32-4.31
			c0-1.69-0.52-3.15-1.57-4.4c-1.04-1.24-2.73-2.55-5.06-3.91l-7.41-4.4c-2.57-1.53-4.39-3.07-5.45-4.64
			c-1.06-1.57-1.6-3.47-1.6-5.72c0-3.09,1.08-5.64,3.22-7.65c2.15-2.01,4.97-3.01,8.46-3.01c2.05,0,4.08,0.36,6.09,1.08
			c2.01,0.72,3.66,1.64,4.97,2.74c1.3,1.11,1.96,2.38,1.96,3.83v6.03h-1.08c-0.68-3.74-1.98-6.55-3.89-8.44
			c-1.91-1.89-4.59-2.83-8.04-2.83c-1.85,0-3.47,0.63-4.88,1.9c-1.41,1.26-2.11,2.8-2.11,4.61c0,1.65,0.51,3.01,1.54,4.1
			c1.02,1.08,2.74,2.35,5.15,3.8l7.41,4.4c2.73,1.65,4.66,3.17,5.78,4.58c1.12,1.41,1.69,3.19,1.69,5.36c0,3.38-1.12,6.01-3.37,7.89
			c-2.25,1.89-5.3,2.83-9.16,2.83C120.82,89.36,118.65,89.13,116.52,88.66z"/>
		<path class="st0" d="M141.58,88.54c-1.33-0.54-2.46-1.44-3.4-2.68s-1.42-2.89-1.42-4.94c0-3.05,1.42-5.22,4.25-6.51
			c2.83-1.29,6.54-1.93,11.12-1.93h1.81c0-3.94-0.54-6.63-1.63-8.07c-1.08-1.45-2.65-2.17-4.7-2.17c-1.81,0-3.25,0.38-4.34,1.15
			s-1.85,2.09-2.29,3.98h-2.71c0-1.36,0.08-2.44,0.24-3.22c0.16-0.78,0.58-1.52,1.26-2.2c0.72-0.72,1.92-1.25,3.58-1.6
			c1.67-0.34,3.49-0.51,5.45-0.51c3.25,0,5.82,0.87,7.71,2.62c1.89,1.75,2.83,5.09,2.83,10.03v16.27h-3.01l-2.11-2.71h-0.3
			c-0.72,0.93-1.79,1.71-3.19,2.35c-1.41,0.64-3.15,0.96-5.24,0.96C144.21,89.36,142.91,89.09,141.58,88.54z M151.52,85.68
			c0.88-0.64,1.69-1.53,2.41-2.65V74.9h-1.81c-2.97,0-5.32,0.55-7.05,1.66c-1.73,1.11-2.59,2.56-2.59,4.37
			c0,1.85,0.55,3.26,1.66,4.25c1.1,0.98,2.46,1.48,4.07,1.48C149.54,86.65,150.64,86.32,151.52,85.68z"/>
		<path class="st0" d="M164.05,63.12c-0.56-0.98-1.69-1.48-3.37-1.48h-1.21v-1.21h5.42c1.52,0,2.68,0.21,3.46,0.63
			c0.78,0.42,1.34,1.11,1.66,2.08h0.3c0.72-0.92,1.75-1.71,3.07-2.35c1.33-0.64,3.01-0.96,5.06-0.96c3.45,0,6.12,1.39,8.01,4.19
			c1.89,2.79,2.83,6.32,2.83,10.57c0,4.3-0.97,7.83-2.92,10.6c-1.95,2.77-4.79,4.16-8.53,4.16c-1.53,0-2.87-0.16-4.04-0.48
			s-2.33-0.76-3.49-1.32v12.65h-5.42V67.67C164.9,65.62,164.62,64.1,164.05,63.12z M181.74,83.57c1.22-2.25,1.84-5.24,1.84-8.98
			c0-3.69-0.58-6.68-1.75-8.95c-1.17-2.27-2.89-3.4-5.18-3.4c-2.69,0-4.8,1.21-6.33,3.62v19.28c1.21,0.56,2.25,1,3.13,1.33
			c0.88,0.32,1.75,0.48,2.59,0.48C178.61,86.95,180.51,85.82,181.74,83.57z"/>
		<path class="st0" d="M192.73,63.12c-0.56-0.98-1.69-1.48-3.37-1.48h-1.21v-1.21h5.42c1.48,0,2.6,0.19,3.34,0.57
			c0.74,0.38,1.28,1.08,1.6,2.08c0.32,1,0.48,2.53,0.48,4.58v21.09h-5.42V67.67C193.58,65.62,193.29,64.1,192.73,63.12z
			 M193.48,55.68c-0.66-0.76-0.99-1.67-0.99-2.71c0-0.84,0.25-1.51,0.75-1.99c0.5-0.48,1.17-0.72,2.02-0.72
			c0.92,0,1.72,0.38,2.38,1.15c0.66,0.76,0.99,1.67,0.99,2.71c0,0.84-0.25,1.51-0.75,1.99c-0.5,0.48-1.17,0.72-2.02,0.72
			C194.94,56.82,194.15,56.44,193.48,55.68z"/>
		<path class="st0" d="M207.85,87.4c-1.89-1.31-3.31-3.07-4.28-5.3c-0.96-2.23-1.45-4.73-1.45-7.5c0-2.73,0.48-5.22,1.45-7.47
			c0.96-2.25,2.36-4.03,4.19-5.33c1.83-1.3,3.97-1.96,6.42-1.96c4.06,0,7.08,1.13,9.07,3.4c1.99,2.27,2.98,5.55,2.98,9.85
			l-0.12,2.41h-18.26c0,3.37,0.72,6.12,2.17,8.25c1.45,2.13,3.43,3.19,5.96,3.19c1.89,0,3.48-0.4,4.79-1.21
			c1.3-0.8,2.52-2.01,3.65-3.62l1.21,0.9c-1.33,2.21-2.87,3.82-4.64,4.82c-1.77,1-3.84,1.51-6.21,1.51
			C212.05,89.36,209.74,88.7,207.85,87.4z M218.94,65.02c-1.05-1.85-2.63-2.77-4.76-2.77c-1.21,0-2.29,0.47-3.25,1.42
			c-0.96,0.95-1.72,2.24-2.26,3.89c-0.54,1.65-0.81,3.5-0.81,5.54h12.65C220.51,69.56,219.98,66.87,218.94,65.02z"/>
		<path class="st0" d="M229.48,63.12c-0.56-0.98-1.69-1.48-3.37-1.48h-1.21v-1.21h5.42c1.48,0,2.62,0.2,3.4,0.6
			c0.78,0.4,1.36,1,1.72,1.81h0.3c0.84-0.84,1.94-1.56,3.28-2.14s2.86-0.87,4.55-0.87c3.01,0,5.47,0.8,7.38,2.41
			c1.91,1.61,2.86,4.42,2.86,8.44v18.07h-5.42V70.68c0-2.81-0.63-4.87-1.9-6.18c-1.27-1.3-2.84-1.96-4.73-1.96
			c-2.13,0-4.14,1.07-6.03,3.19v23.02h-5.42V67.67C230.33,65.62,230.04,64.1,229.48,63.12z"/>
		<path class="st0" d="M261.53,87.43c-1.29-1.28-1.93-3.25-1.93-5.9V62.85h-4.22v-2.41h4.22v-5.42l3.01-3.62h2.41v9.04h7.23v2.41
			h-7.23v18.68c0,3.62,1.41,5.42,4.22,5.42c0.96,0,1.78-0.1,2.44-0.3c0.66-0.2,1.36-0.5,2.08-0.9l0.6,1.21
			c-0.92,0.68-1.95,1.25-3.07,1.72c-1.13,0.46-2.61,0.69-4.46,0.69C264.59,89.36,262.82,88.72,261.53,87.43z"/>
		<path class="st0" d="M277.92,88.54c-1.33-0.54-2.46-1.44-3.4-2.68s-1.42-2.89-1.42-4.94c0-3.05,1.42-5.22,4.25-6.51
			c2.83-1.29,6.54-1.93,11.12-1.93h1.81c0-3.94-0.54-6.63-1.63-8.07c-1.08-1.45-2.65-2.17-4.7-2.17c-1.81,0-3.25,0.38-4.34,1.15
			s-1.85,2.09-2.29,3.98h-2.71c0-1.36,0.08-2.44,0.24-3.22c0.16-0.78,0.58-1.52,1.26-2.2c0.72-0.72,1.92-1.25,3.58-1.6
			c1.67-0.34,3.49-0.51,5.45-0.51c3.25,0,5.82,0.87,7.71,2.62c1.89,1.75,2.83,5.09,2.83,10.03v16.27h-3.01l-2.11-2.71h-0.3
			c-0.72,0.93-1.79,1.71-3.19,2.35c-1.41,0.64-3.15,0.96-5.24,0.96C280.55,89.36,279.25,89.09,277.92,88.54z M287.86,85.68
			c0.88-0.64,1.69-1.53,2.41-2.65V74.9h-1.81c-2.97,0-5.32,0.55-7.05,1.66c-1.73,1.11-2.59,2.56-2.59,4.37
			c0,1.85,0.55,3.26,1.66,4.25c1.1,0.98,2.46,1.48,4.07,1.48C285.88,86.65,286.98,86.32,287.86,85.68z"/>
	</g>
	<g>
		<path class="st1" d="M124.26,125.97c-1.09-0.55-1.96-1.72-2.6-3.51l-0.87-2.43h-9.72l-2.78,6.77h-1.56l9.72-23.09h1.04l7.64,18.75
			c0.58,1.34,1.12,2.26,1.63,2.76c0.51,0.5,1.24,0.79,2.19,0.87v0.71c-0.42,0-0.88,0-1.39,0
			C126.45,126.8,125.35,126.52,124.26,125.97z M120.09,118.64l-4.17-10.07l-4.34,10.07H120.09z"/>
		<path class="st1" d="M130.84,126.02c-1.15-0.75-2-1.77-2.57-3.06c-0.57-1.28-0.85-2.73-0.85-4.32c0-1.6,0.28-3.04,0.85-4.32
			c0.57-1.28,1.42-2.3,2.57-3.06c1.15-0.75,2.55-1.13,4.22-1.13c2.55,0,4.22,0.41,5.04,1.22c0.39,0.39,0.64,0.87,0.73,1.44
			c0.09,0.57,0.14,1.59,0.14,3.07h-0.7c-0.09-1.43-0.54-2.52-1.35-3.25c-0.81-0.73-1.86-1.09-3.16-1.09c-1.67,0-2.92,0.66-3.77,1.98
			c-0.85,1.32-1.27,3.03-1.27,5.14c0,2.11,0.42,3.82,1.27,5.14c0.84,1.32,2.1,1.98,3.77,1.98c1.18,0,2.15-0.23,2.92-0.68
			c0.76-0.45,1.47-1.15,2.12-2.1l0.7,0.52c-0.76,1.3-1.67,2.23-2.71,2.79s-2.28,0.85-3.72,0.85
			C133.39,127.15,131.99,126.77,130.84,126.02z"/>
		<path class="st1" d="M144.61,126.68c-0.76-0.31-1.42-0.83-1.96-1.54c-0.54-0.72-0.82-1.67-0.82-2.85c0-1.76,0.82-3.01,2.45-3.75
			c1.63-0.74,3.77-1.11,6.41-1.11h1.04c0-2.27-0.31-3.82-0.94-4.65c-0.62-0.83-1.53-1.25-2.71-1.25c-1.04,0-1.87,0.22-2.5,0.66
			c-0.63,0.44-1.07,1.2-1.32,2.29h-1.56c0-0.79,0.05-1.41,0.14-1.86c0.09-0.45,0.33-0.87,0.73-1.27c0.42-0.42,1.11-0.72,2.07-0.92
			c0.96-0.2,2.01-0.3,3.14-0.3c1.87,0,3.36,0.5,4.44,1.51c1.09,1.01,1.63,2.93,1.63,5.78v9.38h-1.74l-1.22-1.56h-0.17
			c-0.42,0.53-1.03,0.98-1.84,1.35c-0.81,0.37-1.82,0.55-3.02,0.55C146.12,127.15,145.37,126.99,144.61,126.68z M150.34,125.03
			c0.51-0.37,0.97-0.88,1.39-1.53v-4.69h-1.04c-1.71,0-3.07,0.32-4.06,0.96c-1,0.64-1.49,1.47-1.49,2.52c0,1.06,0.32,1.88,0.95,2.45
			s1.42,0.85,2.35,0.85C149.19,125.58,149.83,125.4,150.34,125.03z"/>
		<path class="st1" d="M158.27,124.75c-1.08-1.6-1.62-3.63-1.62-6.11c0-2.48,0.56-4.51,1.68-6.11c1.12-1.6,2.76-2.4,4.91-2.4
			c0.88,0,1.65,0.09,2.33,0.28s1.34,0.44,2.01,0.76v-3.12c0-1.18-0.16-2.05-0.49-2.62c-0.32-0.57-0.97-0.85-1.94-0.85h-0.69v-0.69
			h3.12c0.86,0,1.5,0.11,1.93,0.33c0.43,0.22,0.73,0.62,0.92,1.2c0.18,0.58,0.28,1.46,0.28,2.64v18.75h-1.74l-1.22-1.56h-0.17
			c-0.51,0.58-1.11,1.04-1.79,1.39c-0.68,0.35-1.65,0.52-2.9,0.52C160.89,127.15,159.35,126.35,158.27,124.75z M166.1,125.24
			c0.49-0.35,0.98-0.87,1.49-1.56v-11.11c-0.7-0.32-1.3-0.58-1.81-0.76c-0.51-0.19-1.01-0.28-1.49-0.28c-1.48,0-2.57,0.65-3.28,1.95
			c-0.71,1.3-1.06,3.02-1.06,5.17c0,2.13,0.34,3.85,1.01,5.16c0.67,1.31,1.67,1.96,2.99,1.96
			C164.9,125.76,165.61,125.58,166.1,125.24z"/>
		<path class="st1" d="M175.93,126.02c-1.09-0.75-1.91-1.77-2.46-3.06c-0.56-1.28-0.83-2.73-0.83-4.32c0-1.57,0.28-3.01,0.83-4.31
			c0.55-1.3,1.36-2.32,2.41-3.07c1.05-0.75,2.28-1.13,3.7-1.13c2.34,0,4.08,0.65,5.23,1.96c1.15,1.31,1.72,3.2,1.72,5.68l-0.07,1.39
			h-10.52c0,1.94,0.42,3.53,1.25,4.76c0.83,1.23,1.98,1.84,3.44,1.84c1.09,0,2.01-0.23,2.76-0.7s1.45-1.16,2.1-2.08l0.7,0.52
			c-0.76,1.27-1.66,2.2-2.67,2.78c-1.02,0.58-2.21,0.87-3.58,0.87C178.35,127.15,177.02,126.77,175.93,126.02z M182.32,113.12
			c-0.6-1.06-1.52-1.6-2.74-1.6c-0.7,0-1.32,0.27-1.87,0.82c-0.56,0.54-0.99,1.29-1.3,2.24c-0.31,0.95-0.47,2.01-0.47,3.2h7.29
			C183.22,115.74,182.92,114.18,182.32,113.12z"/>
		<path class="st1" d="M188.39,112.03c-0.32-0.57-0.97-0.85-1.95-0.85h-0.69v-0.69h3.12c0.86,0,1.51,0.12,1.96,0.35
			s0.78,0.58,0.99,1.04H192c0.49-0.49,1.12-0.9,1.89-1.23c0.78-0.33,1.65-0.5,2.62-0.5c0.97,0,1.81,0.18,2.5,0.54
			c0.7,0.36,1.25,0.99,1.67,1.89c0.6-0.76,1.37-1.36,2.31-1.79c0.94-0.43,1.9-0.64,2.9-0.64c1.48,0,2.66,0.46,3.54,1.39
			c0.88,0.93,1.32,2.55,1.32,4.86v10.42h-3.12v-10.42c0-1.67-0.23-2.87-0.69-3.59c-0.46-0.73-1.16-1.09-2.08-1.09
			c-0.65,0-1.33,0.24-2.05,0.71c-0.72,0.48-1.25,0.99-1.6,1.55c0.11,0.35,0.17,1.16,0.17,2.43v10.42h-3.12v-10.42
			c0-1.67-0.23-2.87-0.7-3.59c-0.46-0.73-1.16-1.09-2.08-1.09c-1.23,0-2.38,0.61-3.47,1.84v13.26h-3.12v-12.15
			C188.88,113.47,188.72,112.59,188.39,112.03z"/>
		<path class="st1" d="M217.13,131.92c0.73-0.52,1.36-1.47,1.89-2.86l0.69-1.91l-5.56-13.54c-0.65-1.67-1.92-2.59-3.82-2.78v-0.7
			h2.95c2.01,0,3.4,0.93,4.17,2.78l3.96,9.62l4.38-12.05h1.74l-6.77,18.58c-0.67,1.83-1.41,3.07-2.22,3.71
			c-0.81,0.65-1.86,0.97-3.16,0.97h-1.04v-1.04C215.46,132.7,216.4,132.44,217.13,131.92z"/>
	</g>
</g>
</svg>
