<?xml version="1.0" encoding="utf-8"?>
<!-- Generator: Adobe Illustrator 28.4.1, SVG Export Plug-In . SVG Version: 6.00 Build 0)  -->
<svg version="1.1" id="Layer_1" xmlns="http://www.w3.org/2000/svg" xmlns:xlink="http://www.w3.org/1999/xlink" x="0px" y="0px"
	 viewBox="0 0 481.61 230.52" style="enable-background:new 0 0 481.61 230.52;" xml:space="preserve">
<style type="text/css">
	.st0{fill:#225A9F;}
	.st1{fill:#BCBEC0;}
	.st2{fill:none;}
	.st3{fill:#D1D3D4;}
	.st4{fill:#5193CE;}
</style>
<g>
	<g>
		<path class="st0" d="M130.4,45.81h-24.57c-12.75,0-25.05,4.67-34.58,13.14l-0.56,0.5c-0.82,0.73-1.61,1.49-2.38,2.26h13.15
			c12.75,0,25.05,4.67,34.58,13.14l0.56,0.5c11.5,10.21,18.02,24.73,18.02,39.98v0.2c0,1.82-0.4,3.56-1.16,5.14l-0.54,1.13
			c-1.13,2.33-1.13,5.05,0,7.38l10.83,22.45c0.39,0.81,0.58,1.7,0.55,2.6l0,0.08c-0.11,3.12-2.68,5.59-5.8,5.57
			c-3-0.02-6.08-0.02-6.08-0.02l0.46,7.62c0.03,0.42,0.26,0.81,0.63,1.03c0.5,0.29,0.74,0.88,0.58,1.44l-1.24,4.53l0.38,0.42
			c0.86,0.97,1.34,2.23,1.34,3.53v0.08c0,0.74-0.6,1.33-1.33,1.33h-0.03c-0.56,0-1.09,0.27-1.4,0.73c-0.2,0.29-0.43,0.63-0.66,0.96
			c-0.64,0.93-0.97,2.03-0.95,3.15l0.02,1.29l0.12,0c24.65,0.04,44.65-19.93,44.65-44.58V90.39
			C174.98,65.77,155.02,45.81,130.4,45.81z"/>
	</g>
	<g>
		<path class="st2" d="M90.55,91.37c-6.59,0-11.96,5.37-11.96,11.96s5.37,11.96,11.96,11.96c6.59,0,11.96-5.37,11.96-11.96
			S97.15,91.37,90.55,91.37z M90.55,114.77c-6.31,0-11.44-5.13-11.44-11.44S84.25,91.9,90.55,91.9c6.31,0,11.44,5.13,11.44,11.44
			S96.86,114.77,90.55,114.77z"/>
	</g>
	<g>
		<path class="st2" d="M90.55,86.33c-9.38,0-17.01,7.63-17.01,17.01s7.63,17.01,17.01,17.01s17.01-7.63,17.01-17.01
			S99.93,86.33,90.55,86.33z M90.55,118.91c-8.59,0-15.58-6.99-15.58-15.58s6.99-15.58,15.58-15.58s15.58,6.99,15.58,15.58
			S99.14,118.91,90.55,118.91z"/>
	</g>
	<g>
		<path class="st2" d="M90.55,81.28c-12.16,0-22.05,9.89-22.05,22.05s9.89,22.05,22.05,22.05c12.16,0,22.05-9.89,22.05-22.05
			S102.71,81.28,90.55,81.28z M90.55,123.05c-10.87,0-19.72-8.85-19.72-19.72s8.85-19.72,19.72-19.72
			c10.87,0,19.72,8.85,19.72,19.72S101.43,123.05,90.55,123.05z"/>
	</g>
	<g>
		<path class="st2" d="M90.55,96.42c-3.81,0-6.91,3.1-6.91,6.91s3.1,6.91,6.91,6.91c3.81,0,6.91-3.1,6.91-6.91
			S94.37,96.42,90.55,96.42z"/>
	</g>
	<g>
		<path class="st2" d="M90.55,76.24c-14.94,0-27.1,12.16-27.1,27.1s12.16,27.1,27.1,27.1c14.94,0,27.1-12.16,27.1-27.1
			S105.5,76.24,90.55,76.24z M90.55,127.2c-13.16,0-23.86-10.71-23.86-23.86s10.7-23.86,23.86-23.86
			c13.16,0,23.86,10.71,23.86,23.86S103.71,127.2,90.55,127.2z"/>
	</g>
	<g>
		<g>
			<path class="st3" d="M90.55,91.9c-6.31,0-11.44,5.13-11.44,11.44s5.13,11.44,11.44,11.44c6.31,0,11.44-5.13,11.44-11.44
				S96.86,91.9,90.55,91.9z M90.55,110.25c-3.81,0-6.91-3.1-6.91-6.91s3.1-6.91,6.91-6.91c3.81,0,6.91,3.1,6.91,6.91
				S94.37,110.25,90.55,110.25z"/>
		</g>
		<g>
			<path class="st3" d="M90.55,87.75c-8.59,0-15.58,6.99-15.58,15.58s6.99,15.58,15.58,15.58s15.58-6.99,15.58-15.58
				S99.14,87.75,90.55,87.75z M90.55,115.29c-6.59,0-11.96-5.37-11.96-11.96s5.37-11.96,11.96-11.96c6.59,0,11.96,5.37,11.96,11.96
				S97.15,115.29,90.55,115.29z"/>
		</g>
		<g>
			<path class="st3" d="M90.55,83.61c-10.87,0-19.72,8.85-19.72,19.72s8.85,19.72,19.72,19.72c10.87,0,19.72-8.85,19.72-19.72
				S101.43,83.61,90.55,83.61z M90.55,120.34c-9.38,0-17.01-7.63-17.01-17.01s7.63-17.01,17.01-17.01s17.01,7.63,17.01,17.01
				S99.93,120.34,90.55,120.34z"/>
		</g>
		<g>
			<path class="st3" d="M90.55,79.47c-13.16,0-23.86,10.71-23.86,23.86s10.7,23.86,23.86,23.86c13.16,0,23.86-10.71,23.86-23.86
				S103.71,79.47,90.55,79.47z M90.55,125.39c-12.16,0-22.05-9.89-22.05-22.05s9.89-22.05,22.05-22.05
				c12.16,0,22.05,9.89,22.05,22.05S102.71,125.39,90.55,125.39z"/>
		</g>
		<g>
			<path class="st3" d="M90.55,75.33c-15.44,0-28,12.56-28,28s12.56,28,28,28s28-12.56,28-28S105.99,75.33,90.55,75.33z
				 M90.55,130.43c-14.94,0-27.1-12.16-27.1-27.1s12.16-27.1,27.1-27.1c14.94,0,27.1,12.16,27.1,27.1S105.5,130.43,90.55,130.43z"/>
		</g>
	</g>
	<g>
		<path class="st4" d="M130.21,185.99l-39.63-0.07l-19.3,13.32v-13.32l-4.14,0.02c-5.6,0.03-10.16-4.51-10.16-10.11v0l0.12-7.03
			c0.02-1.12-0.31-2.23-0.95-3.15l-0.66-0.96c-0.32-0.46-0.84-0.73-1.4-0.73h-0.03c-0.74,0-1.33-0.6-1.33-1.33v0l0-0.08
			c0-1.3,0.48-2.56,1.34-3.53l0.38-0.42l-1.24-4.53c-0.04-0.14-0.05-0.28-0.04-0.42c0.03-0.4,0.24-0.78,0.59-1
			c0.37-0.24,0.64-0.61,0.66-1.05l0.46-7.62c0,0-3.08,0-6.08,0.02c-3.12,0.02-5.69-2.45-5.8-5.57l0-0.08v0
			c-0.03-0.9,0.16-1.79,0.55-2.6l10.83-22.45c0.56-1.17,0.84-2.43,0.84-3.69c0-1.26-0.28-2.52-0.84-3.69l-0.54-1.12
			c-0.77-1.59-1.16-3.32-1.16-5.14v0v-0.2v0c0-14.16,5.63-27.68,15.64-37.72h-2.16c-29.73,0-53.84,24.1-53.84,53.84v41.77
			c0,24.65,20,44.62,44.65,44.58l40.5-0.1l23.45,16.18v-16.23c5.18-0.01,9.37-4.23,9.33-9.42L130.21,185.99z"/>
	</g>
</g>
<g>
	<path class="st0" d="M193.91,142.38c-0.66-1.16-1.98-1.74-3.97-1.74h-1.42v-1.42h18.56c9.16,0,16.09,2.03,20.79,6.09
		c4.7,4.06,7.05,9.73,7.05,17c0,4.68-0.99,8.8-2.98,12.36c-1.98,3.57-4.92,6.34-8.82,8.33c-3.9,1.98-8.63,2.98-14.21,2.98h-14.03
		v-38.26C194.91,145.32,194.58,143.54,193.91,142.38z M218.18,180.93c2.81-1.72,5.02-4.16,6.62-7.3c1.61-3.14,2.41-6.81,2.41-11.02
		c0-4.11-0.79-7.75-2.37-10.91c-1.58-3.16-3.79-5.62-6.62-7.37c-2.83-1.75-6.05-2.62-9.64-2.62c-2.27,0-4.63,0.38-7.08,1.13v39.75
		c2.64,0.61,5.05,0.92,7.23,0.92C212.22,183.51,215.37,182.65,218.18,180.93z"/>
	<path class="st0" d="M243.23,155.84c-0.66-1.16-1.98-1.74-3.97-1.74h-1.42v-1.42h6.38c1.75,0,3.06,0.22,3.93,0.67
		c0.87,0.45,1.5,1.26,1.88,2.44c0.38,1.18,0.57,2.98,0.57,5.38v24.8h-6.38v-24.8C244.22,158.78,243.89,157,243.23,155.84z
		 M244.11,147.09c-0.78-0.9-1.17-1.96-1.17-3.19c0-0.99,0.29-1.77,0.89-2.34c0.59-0.57,1.38-0.85,2.37-0.85
		c1.09,0,2.02,0.45,2.8,1.35c0.78,0.9,1.17,1.96,1.17,3.19c0,0.99-0.29,1.77-0.89,2.34c-0.59,0.57-1.38,0.85-2.37,0.85
		C245.82,148.44,244.89,147.99,244.11,147.09z"/>
	<path class="st0" d="M263.91,185.74c-1.56-0.64-2.89-1.69-4-3.15c-1.11-1.46-1.67-3.4-1.67-5.81c0-3.59,1.67-6.14,5-7.65
		s7.69-2.27,13.07-2.27h2.13c0-4.63-0.64-7.79-1.91-9.49c-1.28-1.7-3.12-2.55-5.53-2.55c-2.13,0-3.83,0.45-5.1,1.35
		c-1.28,0.9-2.17,2.46-2.69,4.68h-3.19c0-1.6,0.09-2.87,0.28-3.79s0.68-1.78,1.49-2.59c0.85-0.85,2.25-1.48,4.22-1.88
		c1.96-0.4,4.1-0.6,6.41-0.6c3.83,0,6.85,1.03,9.07,3.08c2.22,2.05,3.33,5.99,3.33,11.8v19.13h-3.54l-2.48-3.19h-0.35
		c-0.85,1.09-2.1,2.01-3.76,2.76s-3.71,1.13-6.16,1.13C267.01,186.7,265.47,186.38,263.91,185.74z M275.61,182.38
		c1.04-0.75,1.98-1.79,2.83-3.12v-9.57h-2.13c-3.5,0-6.26,0.65-8.29,1.95c-2.03,1.3-3.05,3.01-3.05,5.14c0,2.17,0.65,3.84,1.95,5
		c1.3,1.16,2.89,1.74,4.78,1.74C273.27,183.51,274.57,183.13,275.61,182.38z"/>
	<path class="st0" d="M294.88,142.38c-0.66-1.16-1.98-1.74-3.97-1.74h-1.42v-1.42h6.38c1.75,0,3.06,0.22,3.93,0.67
		c0.87,0.45,1.5,1.26,1.88,2.44c0.38,1.18,0.57,2.98,0.57,5.38v35.43h25.15v2.83h-31.53v-38.26
		C295.87,145.32,295.54,143.54,294.88,142.38z"/>
	<path class="st0" d="M337.32,184.4c-2.36-1.54-4.16-3.62-5.38-6.27c-1.23-2.64-1.84-5.57-1.84-8.79c0-3.21,0.61-6.14,1.84-8.79
		c1.23-2.64,3.02-4.73,5.38-6.27c2.36-1.53,5.15-2.3,8.36-2.3c3.21,0,6,0.77,8.36,2.3c2.36,1.54,4.16,3.63,5.38,6.27
		c1.23,2.65,1.84,5.57,1.84,8.79c0,3.21-0.61,6.14-1.84,8.79c-1.23,2.65-3.02,4.74-5.38,6.27c-2.36,1.54-5.15,2.3-8.36,2.3
		C342.46,186.7,339.68,185.93,337.32,184.4z M350.32,181.95c1.35-1.28,2.38-3.02,3.12-5.24c0.73-2.22,1.1-4.68,1.1-7.37
		c0-2.69-0.37-5.15-1.1-7.37c-0.73-2.22-1.77-3.97-3.12-5.24c-1.35-1.28-2.89-1.91-4.64-1.91c-1.75,0-3.29,0.64-4.64,1.91
		c-1.35,1.28-2.39,3.02-3.12,5.24c-0.73,2.22-1.1,4.68-1.1,7.37c0,2.69,0.37,5.15,1.1,7.37c0.73,2.22,1.77,3.97,3.12,5.24
		c1.35,1.28,2.89,1.91,4.64,1.91C347.42,183.87,348.97,183.23,350.32,181.95z"/>
	<path class="st0" d="M370.51,197.54c-2.81-1.75-4.22-4.53-4.22-8.36c0-2.17,0.73-4.06,2.2-5.67c1.46-1.61,3.33-2.79,5.6-3.54
		c-1.89-1.04-2.83-2.46-2.83-4.25c0-0.94,0.21-1.68,0.64-2.2c0.42-0.52,1.04-1.09,1.84-1.7c-1.51-0.75-2.78-1.94-3.79-3.54
		c-1.02-1.61-1.52-3.5-1.52-5.67c0-7.08,4.49-10.63,13.46-10.63h13.11v1.77l-4.61,0.71v0.35c1.46,0.76,2.66,1.81,3.58,3.15
		c0.92,1.35,1.38,2.89,1.38,4.64c0,7.08-4.49,10.63-13.46,10.63c-4.96,0-7.44,0.83-7.44,2.48c0,1.65,2.48,2.48,7.44,2.48
		c4.58,0,8.32,0.91,11.23,2.73c2.91,1.82,4.36,4.57,4.36,8.25c0,3.83-1.41,6.61-4.22,8.36c-2.81,1.75-6.6,2.62-11.37,2.62
		C377.11,200.16,373.32,199.29,370.51,197.54z M388.61,195.31c1.65-1.35,2.48-3.39,2.48-6.13c0-4.72-2.83-7.44-8.5-8.15l-3.9-0.35
		c-1.94,0.75-3.43,1.82-4.46,3.19c-1.04,1.37-1.56,3.14-1.56,5.31c0,2.74,0.83,4.78,2.48,6.13c1.65,1.35,3.9,2.02,6.73,2.02
		S386.96,196.65,388.61,195.31z M387.02,168.81c1.3-1.3,1.95-3.37,1.95-6.2c0-2.69-0.65-4.72-1.95-6.09
		c-1.3-1.37-3.01-2.05-5.14-2.05c-2.13,0-3.84,0.65-5.14,1.95c-1.3,1.3-1.95,3.37-1.95,6.2s0.65,4.9,1.95,6.2
		c1.3,1.3,3.01,1.95,5.14,1.95C384.01,170.76,385.72,170.11,387.02,168.81z"/>
	<path class="st0" d="M409.73,184.4c-2.36-1.54-4.16-3.62-5.38-6.27c-1.23-2.64-1.84-5.57-1.84-8.79c0-3.21,0.61-6.14,1.84-8.79
		c1.23-2.64,3.02-4.73,5.38-6.27c2.36-1.53,5.15-2.3,8.36-2.3c3.21,0,6,0.77,8.36,2.3c2.36,1.54,4.16,3.63,5.38,6.27
		c1.23,2.65,1.84,5.57,1.84,8.79c0,3.21-0.61,6.14-1.84,8.79c-1.23,2.65-3.02,4.74-5.38,6.27c-2.36,1.54-5.15,2.3-8.36,2.3
		C414.87,186.7,412.09,185.93,409.73,184.4z M422.73,181.95c1.35-1.28,2.38-3.02,3.12-5.24c0.73-2.22,1.1-4.68,1.1-7.37
		c0-2.69-0.37-5.15-1.1-7.37c-0.73-2.22-1.77-3.97-3.12-5.24c-1.35-1.28-2.89-1.91-4.64-1.91c-1.75,0-3.29,0.64-4.64,1.91
		c-1.35,1.28-2.39,3.02-3.12,5.24c-0.73,2.22-1.1,4.68-1.1,7.37c0,2.69,0.37,5.15,1.1,7.37c0.73,2.22,1.77,3.97,3.12,5.24
		c1.35,1.28,2.89,1.91,4.64,1.91C419.83,183.87,421.38,183.23,422.73,181.95z"/>
	<path class="st0" d="M442.1,183.87c-0.8-0.8-1.3-1.71-1.49-2.73c-0.19-1.01-0.28-2.58-0.28-4.71h1.42
		c0.42,2.36,1.45,4.19,3.08,5.49c1.63,1.3,3.91,1.95,6.84,1.95c2.6,0,4.55-0.45,5.85-1.35c1.3-0.9,1.95-2.1,1.95-3.61
		c0-1.37-0.51-2.55-1.52-3.54c-1.02-0.99-2.63-1.94-4.85-2.83l-4.25-1.77c-2.83-1.13-4.96-2.46-6.38-3.97s-2.13-3.38-2.13-5.6
		c0-2.88,1.09-5.14,3.26-6.77c2.17-1.63,4.98-2.44,8.43-2.44c5.2,0,8.74,0.95,10.63,2.83c0.8,0.8,1.3,1.7,1.49,2.69
		c0.19,0.99,0.28,2.58,0.28,4.75H463c-0.38-2.36-1.37-4.19-2.98-5.49c-1.61-1.3-3.8-1.95-6.59-1.95c-2.22,0-3.96,0.46-5.21,1.38
		c-1.25,0.92-1.88,2.11-1.88,3.58c0,2.46,1.89,4.46,5.67,6.02l4.25,1.77c3.21,1.32,5.55,2.73,7.01,4.21c1.46,1.49,2.2,3.39,2.2,5.7
		c0,2.88-1.16,5.14-3.47,6.77c-2.32,1.63-5.29,2.45-8.93,2.45C447.65,186.7,443.99,185.76,442.1,183.87z"/>
</g>
</svg>
