<?xml version="1.0" encoding="utf-8"?>
<!-- Generator: Adobe Illustrator 28.4.1, SVG Export Plug-In . SVG Version: 6.00 Build 0)  -->
<svg version="1.1" id="Layer_1" xmlns="http://www.w3.org/2000/svg" xmlns:xlink="http://www.w3.org/1999/xlink" x="0px" y="0px"
	 viewBox="0 0 441.31 332.93" style="enable-background:new 0 0 441.31 332.93;" xml:space="preserve">
<style type="text/css">
	.st0{fill:#225A9F;}
	.st1{fill:#BCBEC0;}
	.st2{fill:none;}
	.st3{fill:#D1D3D4;}
	.st4{fill:#5193CE;}
</style>
<g>
	<g>
		<g>
			<path class="st0" d="M244.33,34.58h-24.57c-12.75,0-25.05,4.67-34.58,13.14l-0.56,0.5c-0.82,0.73-1.61,1.49-2.38,2.26h13.15
				c12.75,0,25.05,4.67,34.58,13.14l0.56,0.5c11.5,10.21,18.02,24.73,18.02,39.98v0.2c0,1.82-0.4,3.56-1.16,5.14l-0.54,1.13
				c-1.13,2.33-1.13,5.05,0,7.38l10.83,22.45c0.39,0.81,0.58,1.7,0.55,2.6l0,0.08c-0.11,3.12-2.68,5.59-5.8,5.57
				c-3-0.02-6.08-0.02-6.08-0.02l0.46,7.62c0.03,0.42,0.26,0.81,0.63,1.03c0.5,0.29,0.74,0.88,0.58,1.44l-1.24,4.53l0.38,0.42
				c0.86,0.97,1.34,2.23,1.34,3.53v0.08c0,0.74-0.6,1.33-1.33,1.33h-0.03c-0.56,0-1.09,0.27-1.4,0.73c-0.2,0.29-0.43,0.63-0.66,0.96
				c-0.64,0.93-0.97,2.03-0.95,3.15l0.02,1.29l0.12,0c24.65,0.04,44.65-19.93,44.65-44.58V79.16
				C288.91,54.53,268.95,34.58,244.33,34.58z"/>
		</g>
		<g>
			<path class="st2" d="M204.49,80.14c-6.59,0-11.96,5.37-11.96,11.96s5.37,11.96,11.96,11.96c6.59,0,11.96-5.37,11.96-11.96
				S211.08,80.14,204.49,80.14z M204.49,103.54c-6.31,0-11.44-5.13-11.44-11.44s5.13-11.44,11.44-11.44
				c6.31,0,11.44,5.13,11.44,11.44S210.79,103.54,204.49,103.54z"/>
		</g>
		<g>
			<path class="st2" d="M204.49,75.09c-9.38,0-17.01,7.63-17.01,17.01s7.63,17.01,17.01,17.01c9.38,0,17.01-7.63,17.01-17.01
				S213.86,75.09,204.49,75.09z M204.49,107.68c-8.59,0-15.58-6.99-15.58-15.58s6.99-15.58,15.58-15.58s15.58,6.99,15.58,15.58
				S213.08,107.68,204.49,107.68z"/>
		</g>
		<g>
			<path class="st2" d="M204.49,70.05c-12.16,0-22.05,9.89-22.05,22.05s9.89,22.05,22.05,22.05c12.16,0,22.05-9.89,22.05-22.05
				S216.65,70.05,204.49,70.05z M204.49,111.82c-10.87,0-19.72-8.85-19.72-19.72s8.85-19.72,19.72-19.72
				c10.87,0,19.72,8.85,19.72,19.72S215.36,111.82,204.49,111.82z"/>
		</g>
		<g>
			<path class="st2" d="M204.49,85.19c-3.81,0-6.91,3.1-6.91,6.91s3.1,6.91,6.91,6.91s6.91-3.1,6.91-6.91S208.3,85.19,204.49,85.19z
				"/>
		</g>
		<g>
			<path class="st2" d="M204.49,65c-14.94,0-27.1,12.16-27.1,27.1s12.16,27.1,27.1,27.1c14.94,0,27.1-12.16,27.1-27.1
				S219.43,65,204.49,65z M204.49,115.96c-13.16,0-23.86-10.71-23.86-23.86s10.7-23.86,23.86-23.86c13.16,0,23.86,10.71,23.86,23.86
				S217.65,115.96,204.49,115.96z"/>
		</g>
		<g>
			<g>
				<path class="st3" d="M204.49,80.66c-6.31,0-11.44,5.13-11.44,11.44s5.13,11.44,11.44,11.44c6.31,0,11.44-5.13,11.44-11.44
					S210.79,80.66,204.49,80.66z M204.49,99.01c-3.81,0-6.91-3.1-6.91-6.91s3.1-6.91,6.91-6.91s6.91,3.1,6.91,6.91
					S208.3,99.01,204.49,99.01z"/>
			</g>
			<g>
				<path class="st3" d="M204.49,76.52c-8.59,0-15.58,6.99-15.58,15.58s6.99,15.58,15.58,15.58s15.58-6.99,15.58-15.58
					S213.08,76.52,204.49,76.52z M204.49,104.06c-6.59,0-11.96-5.37-11.96-11.96s5.37-11.96,11.96-11.96
					c6.59,0,11.96,5.37,11.96,11.96S211.08,104.06,204.49,104.06z"/>
			</g>
			<g>
				<path class="st3" d="M204.49,72.38c-10.87,0-19.72,8.85-19.72,19.72s8.85,19.72,19.72,19.72c10.87,0,19.72-8.85,19.72-19.72
					S215.36,72.38,204.49,72.38z M204.49,109.11c-9.38,0-17.01-7.63-17.01-17.01s7.63-17.01,17.01-17.01
					c9.38,0,17.01,7.63,17.01,17.01S213.86,109.11,204.49,109.11z"/>
			</g>
			<g>
				<path class="st3" d="M204.49,68.24c-13.16,0-23.86,10.71-23.86,23.86s10.7,23.86,23.86,23.86c13.16,0,23.86-10.71,23.86-23.86
					S217.65,68.24,204.49,68.24z M204.49,114.15c-12.16,0-22.05-9.89-22.05-22.05s9.89-22.05,22.05-22.05
					c12.16,0,22.05,9.89,22.05,22.05S216.65,114.15,204.49,114.15z"/>
			</g>
			<g>
				<path class="st3" d="M204.49,64.1c-15.44,0-28,12.56-28,28s12.56,28,28,28s28-12.56,28-28S219.93,64.1,204.49,64.1z
					 M204.49,119.2c-14.94,0-27.1-12.16-27.1-27.1S189.55,65,204.49,65c14.94,0,27.1,12.16,27.1,27.1S219.43,119.2,204.49,119.2z"/>
			</g>
		</g>
		<g>
			<path class="st4" d="M244.14,174.76l-39.63-0.07l-19.3,13.32v-13.32l-4.14,0.02c-5.6,0.03-10.16-4.51-10.16-10.11v0l0.12-7.03
				c0.02-1.12-0.31-2.23-0.95-3.15l-0.66-0.96c-0.32-0.46-0.84-0.73-1.4-0.73h-0.03c-0.74,0-1.33-0.6-1.33-1.33v0l0-0.08
				c0-1.3,0.48-2.56,1.34-3.53l0.38-0.42l-1.24-4.53c-0.04-0.14-0.05-0.28-0.04-0.42c0.03-0.4,0.24-0.78,0.59-1
				c0.37-0.24,0.64-0.61,0.66-1.05l0.46-7.62c0,0-3.08,0-6.08,0.02c-3.12,0.02-5.69-2.45-5.8-5.57l0-0.08v0
				c-0.03-0.9,0.16-1.79,0.55-2.6l10.83-22.45c0.56-1.17,0.84-2.43,0.84-3.69c0-1.26-0.28-2.52-0.84-3.69l-0.54-1.12
				c-0.77-1.59-1.16-3.32-1.16-5.14v0v-0.2v0c0-14.16,5.63-27.68,15.64-37.72h-2.16c-29.73,0-53.84,24.1-53.84,53.84v41.77
				c0,24.65,20,44.62,44.65,44.58l40.5-0.1l23.45,16.18V190.5c5.18-0.01,9.37-4.23,9.33-9.42L244.14,174.76z"/>
		</g>
	</g>
	<g>
		<path class="st0" d="M10.24,206.53c-1.04-1.82-3.11-2.73-6.23-2.73H1.78v-2.22h29.15c14.39,0,25.27,3.19,32.65,9.57
			c7.38,6.38,11.07,15.28,11.07,26.7c0,7.34-1.56,13.81-4.67,19.41c-3.11,5.6-7.73,9.96-13.85,13.07
			c-6.12,3.11-13.55,4.67-22.3,4.67H11.79v-60.07C11.79,211.14,11.27,208.34,10.24,206.53z M48.34,267.04
			c4.41-2.71,7.88-6.53,10.4-11.46c2.52-4.93,3.78-10.7,3.78-17.3c0-6.45-1.24-12.16-3.73-17.13c-2.49-4.97-5.95-8.83-10.4-11.57
			c-4.45-2.74-9.49-4.12-15.13-4.12c-3.56,0-7.27,0.59-11.12,1.78v62.41c4.15,0.96,7.93,1.45,11.35,1.45
			C38.97,271.1,43.92,269.75,48.34,267.04z"/>
		<path class="st0" d="M87.66,227.66c-1.04-1.82-3.11-2.73-6.23-2.73h-2.22v-2.22h10.01c2.74,0,4.8,0.35,6.17,1.06
			c1.37,0.71,2.35,1.98,2.95,3.84c0.59,1.85,0.89,4.67,0.89,8.45V275H89.22v-38.94C89.22,232.28,88.7,229.48,87.66,227.66z
			 M89.05,213.92c-1.22-1.41-1.84-3.08-1.84-5.01c0-1.56,0.46-2.78,1.39-3.67c0.93-0.89,2.17-1.33,3.73-1.33
			c1.71,0,3.17,0.71,4.39,2.11c1.22,1.41,1.84,3.08,1.84,5.01c0,1.56-0.46,2.78-1.39,3.67c-0.93,0.89-2.17,1.33-3.73,1.33
			C91.74,216.04,90.28,215.33,89.05,213.92z"/>
		<path class="st0" d="M120.14,274.61c-2.45-1-4.54-2.65-6.29-4.95c-1.74-2.3-2.61-5.34-2.61-9.12c0-5.63,2.61-9.64,7.84-12.01
			c5.23-2.37,12.07-3.56,20.52-3.56h3.34c0-7.27-1-12.24-3-14.91s-4.9-4-8.68-4c-3.34,0-6.01,0.71-8.01,2.11
			c-2,1.41-3.41,3.86-4.23,7.34h-5.01c0-2.52,0.15-4.51,0.44-5.95c0.3-1.45,1.07-2.8,2.34-4.06c1.33-1.33,3.54-2.32,6.62-2.95
			c3.08-0.63,6.43-0.95,10.07-0.95c6.01,0,10.75,1.61,14.24,4.84c3.48,3.23,5.23,9.4,5.23,18.52V275h-5.56l-3.89-5.01h-0.56
			c-1.33,1.71-3.3,3.15-5.9,4.34c-2.6,1.18-5.82,1.78-9.68,1.78C125,276.11,122.59,275.61,120.14,274.61z M138.5,269.32
			c1.63-1.18,3.11-2.82,4.45-4.89v-15.02h-3.34c-5.49,0-9.83,1.02-13.02,3.06c-3.19,2.04-4.78,4.73-4.78,8.06
			c0,3.41,1.02,6.03,3.06,7.84c2.04,1.82,4.54,2.73,7.51,2.73C134.83,271.1,136.87,270.51,138.5,269.32z"/>
		<path class="st0" d="M168.76,206.53c-1.04-1.82-3.11-2.73-6.23-2.73h-2.23v-2.22h10.01c2.74,0,4.8,0.35,6.17,1.06
			c1.37,0.71,2.35,1.99,2.95,3.84c0.59,1.85,0.89,4.67,0.89,8.46v55.62h39.49V275h-49.5v-60.07
			C170.32,211.14,169.8,208.34,168.76,206.53z"/>
		<path class="st0" d="M235.39,272.49c-3.71-2.41-6.53-5.69-8.45-9.84c-1.93-4.15-2.89-8.75-2.89-13.79c0-5.04,0.96-9.64,2.89-13.79
			c1.93-4.15,4.75-7.43,8.45-9.84c3.71-2.41,8.08-3.62,13.13-3.62c5.04,0,9.42,1.21,13.13,3.62c3.71,2.41,6.53,5.69,8.45,9.84
			c1.93,4.15,2.89,8.75,2.89,13.79c0,5.04-0.96,9.64-2.89,13.79c-1.93,4.15-4.75,7.44-8.45,9.84c-3.71,2.41-8.08,3.62-13.13,3.62
			C243.48,276.11,239.1,274.9,235.39,272.49z M255.81,268.66c2.11-2,3.74-4.75,4.9-8.23c1.15-3.48,1.72-7.34,1.72-11.57
			c0-4.23-0.58-8.08-1.72-11.57c-1.15-3.48-2.78-6.23-4.9-8.23c-2.11-2-4.54-3-7.29-3c-2.74,0-5.17,1-7.29,3
			c-2.11,2-3.75,4.75-4.89,8.23c-1.15,3.49-1.72,7.34-1.72,11.57c0,4.23,0.57,8.08,1.72,11.57c1.15,3.49,2.78,6.23,4.89,8.23
			c2.11,2,4.54,3,7.29,3C251.26,271.66,253.69,270.66,255.81,268.66z"/>
		<path class="st0" d="M287.51,293.13c-4.41-2.75-6.62-7.12-6.62-13.13c0-3.41,1.15-6.38,3.45-8.9c2.3-2.52,5.23-4.38,8.79-5.56
			c-2.97-1.63-4.45-3.86-4.45-6.68c0-1.48,0.33-2.63,1-3.45c0.67-0.82,1.63-1.71,2.89-2.67c-2.38-1.19-4.36-3.04-5.95-5.56
			c-1.6-2.52-2.39-5.49-2.39-8.9c0-11.12,7.04-16.69,21.14-16.69h20.58v2.78l-7.23,1.11v0.56c2.3,1.19,4.17,2.84,5.62,4.95
			c1.45,2.11,2.17,4.54,2.17,7.29c0,11.12-7.05,16.69-21.14,16.69c-7.79,0-11.68,1.3-11.68,3.89c0,2.6,3.89,3.89,11.68,3.89
			c7.19,0,13.07,1.43,17.63,4.28s6.84,7.17,6.84,12.96c0,6.01-2.21,10.38-6.62,13.13c-4.41,2.74-10.37,4.12-17.85,4.12
			C297.87,297.24,291.92,295.87,287.51,293.13z M315.93,289.62c2.59-2.11,3.89-5.32,3.89-9.62c0-7.42-4.45-11.68-13.35-12.79
			l-6.12-0.55c-3.04,1.19-5.38,2.85-7.01,5c-1.63,2.15-2.45,4.93-2.45,8.34c0,4.3,1.3,7.51,3.89,9.62
			c2.59,2.11,6.12,3.17,10.57,3.17C309.81,292.79,313.34,291.74,315.93,289.62z M313.43,248.02c2.04-2.04,3.06-5.28,3.06-9.73
			c0-4.23-1.02-7.42-3.06-9.57c-2.04-2.15-4.73-3.23-8.06-3.23c-3.34,0-6.03,1.02-8.07,3.06c-2.04,2.04-3.06,5.28-3.06,9.73
			c0,4.45,1.02,7.69,3.06,9.73c2.04,2.04,4.73,3.06,8.07,3.06C308.7,251.08,311.39,250.06,313.43,248.02z"/>
		<path class="st0" d="M349.08,272.49c-3.71-2.41-6.53-5.69-8.45-9.84c-1.93-4.15-2.89-8.75-2.89-13.79c0-5.04,0.96-9.64,2.89-13.79
			c1.93-4.15,4.75-7.43,8.45-9.84c3.71-2.41,8.08-3.62,13.13-3.62c5.04,0,9.42,1.21,13.13,3.62c3.71,2.41,6.53,5.69,8.45,9.84
			c1.93,4.15,2.89,8.75,2.89,13.79c0,5.04-0.96,9.64-2.89,13.79c-1.93,4.15-4.75,7.44-8.45,9.84c-3.71,2.41-8.08,3.62-13.13,3.62
			C357.17,276.11,352.79,274.9,349.08,272.49z M369.5,268.66c2.11-2,3.74-4.75,4.9-8.23c1.15-3.48,1.72-7.34,1.72-11.57
			c0-4.23-0.58-8.08-1.72-11.57c-1.15-3.48-2.78-6.23-4.9-8.23c-2.11-2-4.54-3-7.29-3c-2.74,0-5.17,1-7.29,3
			c-2.11,2-3.75,4.75-4.89,8.23c-1.15,3.49-1.72,7.34-1.72,11.57c0,4.23,0.57,8.08,1.72,11.57c1.15,3.49,2.78,6.23,4.89,8.23
			c2.11,2,4.54,3,7.29,3C364.95,271.66,367.38,270.66,369.5,268.66z"/>
		<path class="st0" d="M399.92,271.66c-1.26-1.26-2.04-2.69-2.34-4.28c-0.3-1.59-0.44-4.06-0.44-7.4h2.22
			c0.67,3.71,2.28,6.58,4.84,8.62c2.56,2.04,6.14,3.06,10.74,3.06c4.08,0,7.14-0.7,9.18-2.11c2.04-1.41,3.06-3.3,3.06-5.67
			c0-2.15-0.8-4-2.39-5.56c-1.6-1.56-4.13-3.04-7.62-4.45l-6.67-2.78c-4.45-1.78-7.79-3.86-10.01-6.23
			c-2.22-2.37-3.34-5.3-3.34-8.79c0-4.52,1.71-8.06,5.12-10.62c3.41-2.56,7.82-3.84,13.24-3.84c8.16,0,13.72,1.48,16.69,4.45
			c1.26,1.26,2.04,2.67,2.34,4.23c0.29,1.56,0.44,4.04,0.44,7.45h-2.22c-0.59-3.71-2.15-6.58-4.67-8.62
			c-2.52-2.04-5.97-3.06-10.35-3.06c-3.49,0-6.21,0.72-8.18,2.17c-1.97,1.45-2.95,3.32-2.95,5.62c0,3.86,2.97,7.01,8.9,9.46
			l6.67,2.78c5.04,2.08,8.71,4.28,11.01,6.62c2.3,2.34,3.45,5.32,3.45,8.96c0,4.52-1.82,8.07-5.45,10.62
			c-3.63,2.56-8.31,3.84-14.02,3.84C408.64,276.11,402.89,274.63,399.92,271.66z"/>
	</g>
</g>
</svg>
